<svg width="241" height="241" viewBox="0 0 241 241" fill="none" xmlns="http://www.w3.org/2000/svg">
    <path d="M148.02 21.099L241 0L175.64 35.1711L148.02 21.099Z" fill="url(#paint0_linear_2774_13677)"/>
    <path d="M241 0L220.198 61.6388L186.634 40.8146L241 0Z" fill="url(#paint1_linear_2774_13677)"/>
    <path d="M175.64 35.1711L179.505 61.6388L186.634 40.8146L241 0L175.64 35.1711Z" fill="#0E3DC1"/>
    <path d="M179.505 61.6386L199.696 48.9132L186.634 40.8145L179.505 61.6386Z" fill="#0073C0"/>
    <path d="M55.0596 240C17.0367 239.468 -37.5602 161.637 41.4122 142.143C120.377 122.648 60.474 208.128 28.0308 166.338C-4.41235 124.547 48.2359 93.0391 101.855 99.2944C155.474 105.55 172.048 65.6152 172.048 65.6152" stroke="#F38E3C" stroke-width="1.52918" stroke-miterlimit="10" stroke-dasharray="9.18 9.18"/>
    <defs>
        <linearGradient id="paint0_linear_2774_13677" x1="148" y1="21.5" x2="241" y2="1.84871e-06" gradientUnits="userSpaceOnUse">
            <stop stop-color="#309DF0"/>
            <stop offset="1" stop-color="#1669E1"/>
        </linearGradient>
        <linearGradient id="paint1_linear_2774_13677" x1="220" y1="57" x2="241" y2="-4.32758e-06" gradientUnits="userSpaceOnUse">
            <stop stop-color="#309DF0"/>
            <stop offset="1" stop-color="#1669E1"/>
        </linearGradient>
    </defs>
</svg>