<?xml version="1.0" standalone="no"?>
<!DOCTYPE svg PUBLIC "-//W3C//DTD SVG 20010904//EN"
 "http://www.w3.org/TR/2001/REC-SVG-20010904/DTD/svg10.dtd">
<svg version="1.0" xmlns="http://www.w3.org/2000/svg"
 width="490.000000pt" height="490.000000pt" viewBox="0 0 490.000000 490.000000"
 preserveAspectRatio="xMidYMid meet">
<metadata>
Created by potrace 1.14, written by Peter Selinger 2001-2017
</metadata>
<g transform="translate(0.000000,490.000000) scale(0.100000,-0.100000)"
fill="#000000" stroke="none">
<path d="M2483 4102 c-67 -70 -150 -156 -184 -192 -119 -124 -237 -293 -270
-386 -10 -29 -30 -96 -44 -150 -14 -55 -43 -142 -64 -194 -22 -52 -72 -174
-111 -270 -39 -96 -80 -183 -90 -194 -16 -16 -23 -17 -70 -7 -29 6 -59 19 -67
29 -27 33 -60 118 -88 227 -16 61 -32 114 -37 120 -16 18 -73 -25 -188 -143
-64 -64 -128 -133 -144 -152 -42 -49 -89 -142 -121 -240 -15 -47 -31 -89 -35
-95 -4 -5 -20 -44 -35 -85 -37 -99 -125 -280 -199 -410 -32 -58 -69 -130 -82
-160 -33 -82 -117 -267 -153 -338 -22 -43 -66 -98 -142 -177 -60 -62 -106
-116 -101 -119 6 -3 33 -7 61 -8 28 -1 51 -5 51 -8 0 -3 -38 -33 -85 -65 -46
-33 -84 -63 -85 -66 0 -3 46 -26 102 -50 l103 -44 145 3 c167 3 276 -14 355
-56 47 -25 59 -26 215 -28 91 -1 190 -6 220 -10 30 -4 60 -8 65 -9 13 -1 119
-18 125 -20 18 -5 130 -16 210 -20 52 -3 115 -8 140 -10 41 -3 105 -7 310 -20
41 -3 109 -7 150 -11 41 -3 98 -7 125 -9 28 -2 102 -7 165 -12 225 -16 816 -9
1020 12 25 3 77 7 115 10 86 6 117 12 175 32 57 20 69 31 50 43 -22 14 -10 20
97 44 176 42 306 95 420 174 39 27 77 44 116 51 145 28 165 33 181 44 19 14
26 6 -138 177 -127 133 -262 313 -440 585 -191 292 -218 339 -398 700 -130
259 -134 269 -216 526 -64 199 -73 220 -134 315 -46 71 -35 70 -200 28 l-97
-24 -43 47 c-24 26 -69 75 -101 109 -130 140 -183 216 -297 423 -63 116 -119
210 -125 210 -5 -1 -65 -58 -132 -127z"/>
</g>
</svg>
